<svg xmlns="http://www.w3.org/2000/svg" version="1.1" xmlns:xlink="http://www.w3.org/1999/xlink" xmlns:svgjs="http://svgjs.dev/svgjs" width="2000" height="1500" viewBox="0 0 2000 1500"><rect width="2000" height="1500" fill="#ffffff"></rect><g transform="matrix(0.75,0,0,0.75,249.67638483964993,0.05154664723022506)"><svg viewBox="0 0 343 343" data-background-color="#ffffff" preserveAspectRatio="xMidYMid meet" height="1999" width="2000" xmlns="http://www.w3.org/2000/svg" xmlns:xlink="http://www.w3.org/1999/xlink"><g id="tight-bounds" transform="matrix(1,0,0,1,0.0740000000000407,0.07400000000001228)"><svg viewBox="0 0 342.85155851775386 342.85155851775386" height="342.85155851775386" width="342.85155851775386"><g><svg></svg></g><g><svg viewBox="0 0 342.85155851775386 342.85155851775386" height="342.85155851775386" width="342.85155851775386"><g><path d="M0 171.426c0-94.676 76.75-171.426 171.426-171.426 94.676 0 171.426 76.75 171.426 171.426 0 94.676-76.75 171.426-171.426 171.426-94.676 0-171.426-76.75-171.426-171.426zM171.426 340.257c93.243 0 168.832-75.588 168.831-168.831 0-93.243-75.588-168.832-168.831-168.832-93.243 0-168.832 75.588-168.832 168.832 0 93.243 75.588 168.832 168.832 168.831z" data-fill-palette-color="tertiary" fill="#010c80" stroke="transparent"></path><ellipse rx="164.56874808852186" ry="164.56874808852186" cx="171.42577925887693" cy="171.42577925887693" fill="#010c80" stroke="transparent" stroke-width="0" fill-opacity="1" data-fill-palette-color="tertiary"></ellipse></g><g transform="matrix(1,0,0,1,64.84655864529837,113.89056915333536)"><svg viewBox="0 0 213.1584412271571 115.07042021108313" height="115.07042021108313" width="213.1584412271571"><g><svg viewBox="0 0 213.1584412271571 115.07042021108313" height="115.07042021108313" width="213.1584412271571"><g transform="matrix(1,0,0,1,0,86.30336173242344)"><svg viewBox="0 0 213.1584412271571 28.767058478659685" height="28.767058478659685" width="213.1584412271571"><g id="textblocktransform"><svg viewBox="0 0 213.1584412271571 28.767058478659685" height="28.767058478659685" width="213.1584412271571" id="textblock"><g><svg viewBox="0 0 213.1584412271571 28.767058478659685" height="28.767058478659685" width="213.1584412271571"><g transform="matrix(1,0,0,1,0,0)"><svg width="213.1584412271571" viewBox="4.45 -30.95 234.13000000000002 31.599999999999998" height="28.767058478659685" data-palette-color="#ffffff"><path d="M13.6-10.85L4.45-10.85 4.45-28.2Q4.45-29 4.88-29.43 5.3-29.85 6.1-30.1L6.1-30.1Q7.55-30.55 9.63-30.75 11.7-30.95 13.65-30.95L13.65-30.95Q20-30.95 22.93-28.28 25.85-25.6 25.85-21.05L25.85-21.05Q25.85-17.95 24.53-15.65 23.2-13.35 20.5-12.1 17.8-10.85 13.6-10.85L13.6-10.85ZM6.65 0.25L6.65 0.25Q5.55 0.25 5-0.2 4.45-0.65 4.45-1.6L4.45-1.6 4.45-12.8 8.55-12.8 8.55-0.1Q8.25 0 7.75 0.13 7.25 0.25 6.65 0.25ZM8.5-27.1L8.5-14.25 13.35-14.25Q17.35-14.25 19.55-15.93 21.75-17.6 21.75-21L21.75-21Q21.75-24.4 19.63-25.98 17.5-27.55 13.55-27.55L13.55-27.55Q12.2-27.55 10.88-27.43 9.55-27.3 8.5-27.1L8.5-27.1ZM36.85-27.1L36.85-14.9 42.6-14.9Q46.3-14.9 48.4-16.5 50.5-18.1 50.5-21.25L50.5-21.25Q50.5-24.35 48.3-25.95 46.1-27.55 42-27.55L42-27.55Q40.65-27.55 39.27-27.43 37.9-27.3 36.85-27.1L36.85-27.1ZM42.6-11.5L42.6-11.5 32.8-11.5 32.8-28.2Q32.8-29 33.22-29.43 33.65-29.85 34.45-30.1L34.45-30.1Q35.9-30.55 38.02-30.75 40.15-30.95 42.15-30.95L42.15-30.95Q48.4-30.95 51.5-28.4 54.6-25.85 54.6-21.25L54.6-21.25Q54.6-18.3 53.25-16.1 51.9-13.9 49.25-12.7 46.6-11.5 42.6-11.5ZM50.9-1.3L42.7-12.8 45.7-14.3Q47.1-12.55 48.6-10.65 50.1-8.75 51.5-6.95 52.9-5.15 54-3.73 55.1-2.3 55.7-1.5L55.7-1.5Q55.5-0.65 54.82-0.15 54.15 0.35 53.45 0.35L53.45 0.35Q52.6 0.35 52.05-0.08 51.5-0.5 50.9-1.3L50.9-1.3ZM32.8-1.6L32.8-12.6 36.9-12.6 36.9-0.1Q36.6 0 36.1 0.13 35.6 0.25 35 0.25L35 0.25Q33.9 0.25 33.35-0.2 32.8-0.65 32.8-1.6L32.8-1.6ZM62.3-1.6L62.3-18.15 66.34-18.15 66.34-0.1Q66.09 0 65.59 0.13 65.09 0.25 64.5 0.25L64.5 0.25Q63.4 0.25 62.84-0.2 62.3-0.65 62.3-1.6L62.3-1.6ZM66.34-28.8L66.34-14.8 62.3-14.8 62.3-30.3Q62.55-30.4 63.07-30.53 63.59-30.65 64.2-30.65L64.2-30.65Q65.3-30.65 65.82-30.23 66.34-29.8 66.34-28.8L66.34-28.8ZM92.64-7.9L92.64-7.9Q92.29-7.65 91.72-7.45 91.14-7.25 90.44-7.25L90.44-7.25Q89.64-7.25 89.02-7.5 88.39-7.75 88.14-8.3L88.14-8.3Q85.49-13.9 83.52-18.55 81.54-23.2 80.34-26.25L80.34-26.25 80.14-26.25Q79.99-22.5 79.82-19.25 79.64-16 79.44-12.98 79.24-9.95 79.07-6.78 78.89-3.6 78.64 0L78.64 0Q78.34 0.1 77.87 0.2 77.39 0.3 76.84 0.3L76.84 0.3Q75.74 0.3 75.29-0.18 74.84-0.65 74.84-1.45L74.84-1.45Q74.84-2.05 74.97-4.23 75.09-6.4 75.27-9.55 75.44-12.7 75.69-16.28 75.94-19.85 76.22-23.33 76.49-26.8 76.74-29.6L76.74-29.6Q77.14-29.95 77.89-30.25 78.64-30.55 79.59-30.55L79.59-30.55Q80.74-30.55 81.54-30.1 82.34-29.65 82.79-28.7L82.79-28.7Q84.09-26.15 85.39-23.15 86.69-20.15 87.94-17.15 89.19-14.15 90.34-11.5L90.34-11.5 90.54-11.5Q92.74-16.8 94.92-21.7 97.09-26.6 98.59-30.05L98.59-30.05Q99.04-30.3 99.74-30.43 100.44-30.55 101.04-30.55L101.04-30.55Q102.19-30.55 102.87-30.18 103.54-29.8 103.74-28.95L103.74-28.95Q103.94-28.1 104.19-26.05 104.44-24 104.69-21.23 104.94-18.45 105.17-15.4 105.39-12.35 105.59-9.4 105.79-6.45 105.97-4.08 106.14-1.7 106.19-0.3L106.19-0.3Q105.74 0 105.24 0.15 104.74 0.3 104.09 0.3L104.09 0.3Q103.34 0.3 102.77-0.08 102.19-0.45 102.09-1.45L102.09-1.45Q101.79-6.3 101.52-11.03 101.24-15.75 101.04-19.7 100.84-23.65 100.69-26.15L100.69-26.15 100.49-26.15Q99.39-23.4 97.49-19.07 95.59-14.75 92.64-7.9ZM114.34-2.2L114.34-18.3 118.39-18.3 118.39-0.4Q118.19-0.35 117.64-0.18 117.09 0 116.54 0L116.54 0Q115.54 0 114.94-0.63 114.34-1.25 114.34-2.2L114.34-2.2ZM118.39-30L118.39-12.4 114.34-12.45 114.34-28.2Q114.34-29.2 114.94-29.8 115.54-30.4 116.54-30.4L116.54-30.4Q117.09-30.4 117.64-30.25 118.19-30.1 118.39-30L118.39-30ZM130.49-13.9L116.54-13.9 116.54-17.3 131.59-17.3Q131.74-17.1 131.89-16.65 132.04-16.2 132.04-15.7L132.04-15.7Q132.04-14.9 131.64-14.4 131.24-13.9 130.49-13.9L130.49-13.9ZM132.29 0L116.54 0 116.54-3.4 133.39-3.4Q133.54-3.2 133.69-2.78 133.84-2.35 133.84-1.8L133.84-1.8Q133.84-1 133.44-0.5 133.04 0 132.29 0L132.29 0ZM132.04-26.95L116.54-26.95 116.54-30.4 133.14-30.4Q133.29-30.2 133.44-29.75 133.59-29.3 133.59-28.8L133.59-28.8Q133.59-28 133.19-27.48 132.79-26.95 132.04-26.95L132.04-26.95ZM150.89-1.6L150.89-18.1 154.99-18.1 154.99-0.1Q154.69 0 154.19 0.13 153.69 0.25 153.09 0.25L153.09 0.25Q151.99 0.25 151.44-0.2 150.89-0.65 150.89-1.6L150.89-1.6ZM154.99-28.8L154.99-14.75 150.89-14.75 150.89-30.3Q151.14-30.4 151.66-30.53 152.19-30.65 152.79-30.65L152.79-30.65Q153.89-30.65 154.44-30.23 154.99-29.8 154.99-28.8L154.99-28.8ZM170.59-1.6L170.59-18.1 174.69-18.1 174.69-0.1Q174.39 0 173.89 0.13 173.39 0.25 172.79 0.25L172.79 0.25Q171.69 0.25 171.14-0.2 170.59-0.65 170.59-1.6L170.59-1.6ZM174.69-28.8L174.69-14.75 170.59-14.75 170.59-30.3Q170.84-30.4 171.36-30.53 171.89-30.65 172.49-30.65L172.49-30.65Q173.59-30.65 174.14-30.23 174.69-29.8 174.69-28.8L174.69-28.8ZM172.74-17.1L172.74-13.7 153.34-13.7 153.34-17.1 172.74-17.1ZM195.33 0.65L195.33 0.65Q191.58 0.65 188.93-0.73 186.28-2.1 184.91-4.63 183.53-7.15 183.53-10.5L183.53-10.5 183.53-14.6 187.58-14.6 187.58-10.85Q187.58-6.85 189.81-4.83 192.03-2.8 195.33-2.8L195.33-2.8Q198.63-2.8 200.86-4.83 203.08-6.85 203.08-10.85L203.08-10.85 203.08-14.6 207.18-14.6 207.18-10.5Q207.18-7.15 205.81-4.63 204.43-2.1 201.78-0.73 199.13 0.65 195.33 0.65ZM187.58-28.8L187.58-12.55 183.53-12.55 183.53-30.3Q183.78-30.4 184.31-30.53 184.83-30.65 185.43-30.65L185.43-30.65Q186.53-30.65 187.06-30.23 187.58-29.8 187.58-28.8L187.58-28.8ZM207.18-28.8L207.18-12.55 203.08-12.55 203.08-30.3Q203.33-30.4 203.86-30.53 204.38-30.65 204.98-30.65L204.98-30.65Q206.08-30.65 206.63-30.23 207.18-29.8 207.18-28.8L207.18-28.8ZM218.83-17.45L232.58-17.45 232.58-14.15 218.83-14.15 218.83-17.45ZM226.83-14.15L226.83-14.15 228.43-16.65Q231.83-16.65 234.08-15.53 236.33-14.4 237.46-12.55 238.58-10.7 238.58-8.4L238.58-8.4Q238.58-3.85 235.31-1.65 232.03 0.55 225.98 0.55L225.98 0.55Q224.63 0.55 223.28 0.48 221.93 0.4 220.63 0.2 219.33 0 218.13-0.3L218.13-0.3Q216.03-0.9 216.03-2.6L216.03-2.6 216.03-28.2Q216.03-29 216.46-29.45 216.88-29.9 217.68-30.1L217.68-30.1Q219.38-30.6 221.31-30.78 223.23-30.95 225.43-30.95L225.43-30.95Q231.08-30.95 234.23-28.93 237.38-26.9 237.38-22.75L237.38-22.75Q237.38-20.65 236.36-18.88 235.33-17.1 233.06-16.03 230.78-14.95 226.98-14.95L226.98-14.95 226.53-17.45Q229.83-17.45 231.53-18.82 233.23-20.2 233.23-22.65L233.23-22.65Q233.23-25.15 231.26-26.38 229.28-27.6 225.43-27.6L225.43-27.6Q223.73-27.6 222.43-27.48 221.13-27.35 220.03-27.15L220.03-27.15 220.03-3.35Q221.23-3.1 222.81-2.95 224.38-2.8 225.98-2.8L225.98-2.8Q230.13-2.8 232.28-4.2 234.43-5.6 234.43-8.5L234.43-8.5Q234.43-11.1 232.51-12.63 230.58-14.15 226.83-14.15Z" opacity="1" transform="matrix(1,0,0,1,0,0)" fill="#ffffff" class="wordmark-text-0" data-fill-palette-color="quaternary" id="text-0"></path></svg></g></svg></g></svg></g></svg></g><g transform="matrix(1,0,0,1,60.952227923816814,0)"><svg viewBox="0 0 91.25398537952348 79.51214963501538" height="79.51214963501538" width="91.25398537952348"><g><svg xmlns="http://www.w3.org/2000/svg" data-name="Layer 1" viewBox="0.3 6.67 99.4 86.61" x="0" y="0" height="79.51214963501538" width="91.25398537952348" class="icon-icon-0" data-fill-palette-color="quaternary" id="icon-0"><path d="M98.42 86.75H95.68V18.75A1.27 1.27 0 0 0 94.41 17.48H77.14A1.27 1.27 0 0 0 75.87 18.75V86.75H71.15V7.94A1.27 1.27 0 0 0 69.88 6.67H30.12A1.27 1.27 0 0 0 28.85 7.94V86.75H24.13V18.75A1.27 1.27 0 0 0 22.86 17.48H5.58A1.27 1.27 0 0 0 4.31 18.75V86.75H1.58A1.28 1.28 0 0 0 0.3 88V92A1.28 1.28 0 0 0 1.58 93.28H98.42A1.28 1.28 0 0 0 99.7 92V88A1.28 1.28 0 0 0 98.42 86.75M17.48 72.53A1.27 1.27 0 0 1 16.21 73.8H12.21A1.27 1.27 0 0 1 11 72.53V68.53A1.27 1.27 0 0 1 12.27 67.26H16.27A1.27 1.27 0 0 1 17.54 68.53ZM17.48 61.76A1.27 1.27 0 0 1 16.21 63H12.21A1.27 1.27 0 0 1 11 61.75V57.75A1.27 1.27 0 0 1 12.27 56.48H16.27A1.27 1.27 0 0 1 17.54 57.75ZM17.48 50.98A1.27 1.27 0 0 1 16.21 52.25H12.21A1.27 1.27 0 0 1 11 51V47A1.27 1.27 0 0 1 12.27 45.73H16.27A1.27 1.27 0 0 1 17.48 47ZM17.48 40.21A1.27 1.27 0 0 1 16.21 41.48H12.21A1.27 1.27 0 0 1 11 40.2V36.2A1.27 1.27 0 0 1 12.23 35H16.23A1.27 1.27 0 0 1 17.5 36.27ZM17.48 29.43A1.27 1.27 0 0 1 16.21 30.7H12.21A1.27 1.27 0 0 1 11 29.43V25.43A1.27 1.27 0 0 1 12.27 24.16H16.27A1.27 1.27 0 0 1 17.54 25.43ZM46.74 14.66A1.26 1.26 0 0 1 48 13.4H52A1.26 1.26 0 0 1 53.26 14.66V18.66A1.26 1.26 0 0 1 52 19.92H48A1.26 1.26 0 0 1 46.74 18.66ZM46.74 25.43A1.26 1.26 0 0 1 48 24.18H52A1.26 1.26 0 0 1 53.26 25.44V29.44A1.26 1.26 0 0 1 52 30.7H48A1.26 1.26 0 0 1 46.74 29.44ZM46.74 36.21A1.26 1.26 0 0 1 48 35H52A1.26 1.26 0 0 1 53.26 36.26V40.26A1.26 1.26 0 0 1 52 41.47H48A1.26 1.26 0 0 1 46.74 40.21ZM46.74 46.98A1.26 1.26 0 0 1 48 45.73H52A1.26 1.26 0 0 1 53.26 47V51A1.26 1.26 0 0 1 52 52.25H48A1.26 1.26 0 0 1 46.74 51ZM46.74 57.75A1.26 1.26 0 0 1 48 56.5H52A1.26 1.26 0 0 1 53.26 57.76V61.76A1.26 1.26 0 0 1 52 63H48A1.26 1.26 0 0 1 46.74 61.74ZM35.5 14.66A1.26 1.26 0 0 1 36.76 13.4H40.76A1.26 1.26 0 0 1 42 14.66V18.66A1.26 1.26 0 0 1 40.74 19.92H36.74A1.26 1.26 0 0 1 35.48 18.66ZM35.5 25.43A1.26 1.26 0 0 1 36.76 24.17H40.76A1.26 1.26 0 0 1 42 25.44V29.44A1.26 1.26 0 0 1 40.74 30.7H36.74A1.26 1.26 0 0 1 35.48 29.44ZM35.5 36.21A1.26 1.26 0 0 1 36.76 35H40.76A1.26 1.26 0 0 1 42 36.21V40.21A1.26 1.26 0 0 1 40.74 41.47H36.74A1.26 1.26 0 0 1 35.48 40.21ZM35.5 47A1.26 1.26 0 0 1 36.76 45.74H40.76A1.26 1.26 0 0 1 42 47V51A1.26 1.26 0 0 1 40.74 52.26H36.74A1.26 1.26 0 0 1 35.5 51ZM40.76 63H36.76A1.26 1.26 0 0 1 35.5 61.74V57.74A1.26 1.26 0 0 1 36.76 56.48H40.76A1.26 1.26 0 0 1 42 57.76V61.76A1.26 1.26 0 0 1 40.76 63M58 86.75H42V69.33A1.27 1.27 0 0 1 43.27 68.06H56.71A1.27 1.27 0 0 1 58 69.33ZM64.52 61.75A1.26 1.26 0 0 1 63.24 63H59.24A1.26 1.26 0 0 1 58 61.76V57.76A1.26 1.26 0 0 1 59.26 56.5H63.26A1.26 1.26 0 0 1 64.52 57.76ZM64.5 51A1.26 1.26 0 0 1 63.24 52.26H59.24A1.26 1.26 0 0 1 58 51V47A1.26 1.26 0 0 1 59.26 45.74H63.26A1.26 1.26 0 0 1 64.5 47ZM64.5 40.22A1.26 1.26 0 0 1 63.24 41.48H59.24A1.26 1.26 0 0 1 58 40.21V36.21A1.26 1.26 0 0 1 59.24 35H63.24A1.26 1.26 0 0 1 64.5 36.26ZM64.5 29.45A1.26 1.26 0 0 1 63.24 30.71H59.24A1.26 1.26 0 0 1 58 29.43V25.43A1.26 1.26 0 0 1 59.26 24.17H63.26A1.26 1.26 0 0 1 64.52 25.43ZM64.5 18.67A1.26 1.26 0 0 1 63.24 19.93H59.24A1.26 1.26 0 0 1 58 18.66V14.66A1.26 1.26 0 0 1 59.26 13.4H63.26A1.26 1.26 0 0 1 64.52 14.66ZM89 72.53A1.27 1.27 0 0 1 87.73 73.8H83.73A1.27 1.27 0 0 1 82.46 72.53V68.53A1.27 1.27 0 0 1 83.73 67.26H87.73A1.27 1.27 0 0 1 89 68.54ZM89 61.76A1.27 1.27 0 0 1 87.77 63H83.77A1.27 1.27 0 0 1 82.5 61.73V57.73A1.27 1.27 0 0 1 83.77 56.46H87.77A1.27 1.27 0 0 1 89 57.77ZM89 51A1.27 1.27 0 0 1 87.73 52.27H83.73A1.27 1.27 0 0 1 82.52 51V47A1.27 1.27 0 0 1 83.79 45.73H87.79A1.27 1.27 0 0 1 89 47ZM89 40.2A1.27 1.27 0 0 1 87.73 41.47H83.73A1.27 1.27 0 0 1 82.46 40.2V36.2A1.27 1.27 0 0 1 83.79 35H87.79A1.27 1.27 0 0 1 89 36.22ZM89 29.42A1.27 1.27 0 0 1 87.73 30.69H83.73A1.27 1.27 0 0 1 82.46 29.42V25.42A1.27 1.27 0 0 1 83.73 24.15H87.73A1.27 1.27 0 0 1 89 25.44Z" fill="#ffffff" data-fill-palette-color="quaternary"></path></svg></g></svg></g><g></g></svg></g></svg></g></svg></g><defs></defs></svg><rect width="342.85155851775386" height="342.85155851775386" fill="none" stroke="none" visibility="hidden"></rect></g></svg></g></svg>